# 3ds Max Wavefront OBJ Exporter v0.97b - (c)2007 guruware
# File Created: 18.03.2013 18:27:41

mtllib das_boots_back3.mtl

#
# object Cylinder001
#

#
# object Cylinder003
#

v  18.6735 0.0000 0.1418
v  17.6949 0.0000 6.5611
v  19.0962 12.1530 6.5611
v  20.0749 12.1530 0.1418
v  14.3688 0.0000 11.3970
v  16.2561 12.1530 12.1352
v  9.9452 0.0000 15.8207
v  11.8324 12.1530 16.5588
v  0.0793 12.1530 20.3776
v  6.2583 12.1530 19.3990
v  0.0793 2.1085 20.2435
v  -9.4480 5.6401 20.1913
v  -11.0115 14.5890 21.0243
v  -30.7019 0.0000 24.1351
v  -39.1392 0.0000 21.9828
v  -39.1392 12.1530 21.9828
v  -30.7019 12.1530 24.1351
v  -46.2234 0.0000 16.6308
v  -48.2972 12.1530 16.5242
v  -49.5605 0.0000 10.7686
v  -53.2952 12.1530 10.7686
v  -51.3231 0.0000 0.1922
v  -55.0577 12.1530 0.2260
v  14.9106 28.2340 6.5611
v  15.6815 27.7149 0.1349
v  12.0762 28.2246 12.1352
v  7.9333 25.7939 16.5588
v  4.4342 24.3059 19.3990
v  -1.2731 24.3059 21.5375
v  -9.4055 19.7759 20.9341
v  -33.2698 22.4631 21.9828
v  -22.0870 20.0039 23.3499
v  -42.3207 26.4699 16.5242
v  -47.7600 26.4699 10.7686
v  -51.3028 26.4699 0.2006
v  16.6345 36.4589 6.5611
v  17.6131 36.4589 0.1418
v  13.7943 36.4589 12.1352
v  9.4145 36.4589 16.5588
v  5.2350 36.4589 19.3990
v  0.0793 36.4589 20.3776
v  -4.5869 36.4589 19.3990
v  -12.8475 22.1412 16.5588
v  -8.6276 36.4589 16.5588
v  -14.8358 24.3059 12.1352
v  -12.9362 36.4589 12.1352
v  -15.9179 23.6593 6.5611
v  -15.7764 36.4589 6.5611
v  -16.8966 22.2527 0.0317
v  -16.7550 36.4589 0.2597
v  19.0962 59.5729 6.5611
v  20.0749 59.5729 0.1418
v  16.2561 59.5729 12.1352
v  11.8324 59.5729 16.5588
v  6.2583 59.5729 19.3990
v  0.0793 59.5729 20.3776
v  -6.0996 59.5729 19.3990
v  -11.6737 59.5729 16.5588
v  -16.0974 59.5729 12.1352
v  -18.9375 59.5729 6.5611
v  -19.9162 59.5729 0.2515
v  20.1079 90.5582 6.1662
v  21.1623 90.5582 -0.6909
v  21.7162 78.3698 -0.8809
v  20.6458 78.3698 6.0687
v  17.5394 78.3698 12.1654
v  17.0480 90.5582 12.1717
v  12.6874 78.3698 16.6260
v  12.2550 90.5582 16.1938
v  6.5908 78.3698 19.7324
v  6.2495 90.5582 19.2538
v  -0.1674 78.3698 20.8028
v  -0.4077 90.5582 20.3082
v  -6.5037 78.3698 19.8673
v  -6.2339 90.5582 19.5195
v  -12.2394 90.5582 16.4595
v  -12.6003 78.3698 16.7609
v  -17.4386 78.3698 11.9226
v  -17.0055 90.5582 11.6935
v  -19.8830 90.5582 6.1662
v  -20.4524 78.3698 6.0687
v  -20.9333 90.5582 -0.4758
v  -21.5207 78.3698 -0.7117
v  -11.6737 8.7450 16.5588
v  -16.0974 8.4937 13.0612
v  -18.9375 8.2913 5.1738
v  -19.9162 8.2839 0.3671
v  18.4482 97.7819 6.5611
v  19.4268 97.7819 0.1418
v  15.6080 97.7819 12.1352
v  11.1469 97.7819 15.5231
v  5.5728 97.7819 18.3632
v  -0.6061 97.7819 19.3419
v  -5.6281 97.7819 18.7331
v  -11.2022 97.7819 15.8929
v  -15.6259 97.7819 11.4693
v  -18.2120 97.7819 6.5611
v  -19.1849 97.7819 0.3865
# 98 vertices

vn 0.9822 -0.1133 0.1497
vn 0.8530 -0.1308 0.5053
vn 0.6990 -0.1510 0.6990
vn 0.3038 -0.1831 0.9350
vn 0.4069 -0.0122 0.9134
vn 0.0144 -0.0497 0.9987
vn -0.2472 0.0000 0.9690
vn -0.5535 -0.0436 0.8317
vn -0.7980 -0.1882 0.5725
vn -0.9439 -0.2903 0.1576
vn 0.9582 0.2598 0.1200
vn 0.8681 0.2259 0.4421
vn 0.6801 0.1849 0.7094
vn 0.5137 0.1140 0.8504
vn 0.2537 -0.0130 0.9672
vn 0.0090 -0.0617 0.9981
vn -0.1541 0.1650 0.9742
vn -0.4646 0.2235 0.8569
vn -0.7100 0.2854 0.6438
vn -0.9251 0.3003 0.2325
vn 0.9679 -0.2086 0.1403
vn 0.8762 -0.1832 0.4458
vn 0.7314 -0.1238 0.6706
vn 0.6011 -0.0601 0.7969
vn 0.2758 0.0214 0.9610
vn -0.1658 0.1269 0.9780
vn -0.6393 0.2228 0.7360
vn -0.7800 0.1803 0.5993
vn -0.9419 0.0770 0.3269
vn -0.9887 0.0091 0.1498
vn 0.9831 -0.1047 0.1499
vn 0.8870 -0.0945 0.4520
vn 0.7069 -0.0746 0.7034
vn 0.5029 -0.0374 0.8635
vn 0.1702 -0.0038 0.9854
vn -0.1776 -0.0058 0.9841
vn -0.5080 -0.0501 0.8599
vn -0.7085 -0.0951 0.6993
vn -0.8845 -0.1210 0.4507
vn -0.9793 -0.1339 0.1520
vn 0.9875 0.0424 0.1520
vn 0.8904 0.0357 0.4537
vn 0.6599 0.0381 0.7503
vn 0.4535 0.0476 0.8900
vn 0.1563 0.0431 0.9868
vn -0.1403 0.0344 0.9895
vn -0.4537 0.0355 0.8904
vn -0.7066 0.0384 0.7066
vn -0.8874 0.0390 0.4594
vn -0.9868 0.0447 0.1557
vn 0.1747 -0.0259 0.9843
vn 0.1102 -0.7768 -0.6200
vn 0.2351 -0.9310 -0.2792
vn 0.2512 -0.9629 -0.0987
vn 0.2542 -0.9661 -0.0448
vn 0.1725 -0.0692 0.9826
vn 0.1195 0.8888 0.4424
vn 0.1317 0.9002 0.4150
vn 0.0693 0.9929 -0.0965
vn 0.0979 0.9894 -0.1073
vn -0.2104 -0.9769 0.0370
vn -0.2194 -0.9751 -0.0335
vn -0.2186 -0.9754 -0.0267
vn -0.2094 -0.9768 0.0441
vn -0.2560 -0.9627 0.0872
vn -0.2607 -0.9581 0.1184
vn -0.2189 -0.9685 -0.1189
vn -0.2131 -0.9660 -0.1466
vn -0.3241 -0.8848 0.3349
vn -0.3188 -0.8272 0.4627
vn -0.2797 -0.9322 -0.2296
vn -0.2722 -0.9230 -0.2722
vn -0.3181 -0.8238 -0.4692
vn -0.2967 -0.8081 -0.5089
vn -0.3502 -0.8448 -0.4046
vn -0.3566 -0.8486 -0.3909
vn 0.9655 0.2143 0.1479
vn 0.9855 -0.0776 0.1510
vn 0.8769 0.1771 0.4468
vn 0.8893 -0.0614 0.4531
vn 0.6183 0.1468 0.7721
vn 0.6911 -0.0412 0.7216
vn 0.4488 0.1506 0.8808
vn 0.4539 -0.0238 0.8908
vn 0.1550 0.1352 0.9786
vn 0.1564 -0.0203 0.9875
vn -0.1268 0.1230 0.9843
vn -0.1511 -0.0261 0.9882
vn -0.4499 0.1339 0.8830
vn -0.4538 -0.0319 0.8906
vn -0.6986 0.1551 0.6986
vn -0.7065 -0.0424 0.7065
vn -0.8717 0.1787 0.4564
vn -0.8885 -0.0590 0.4551
vn -0.9647 0.2151 0.1523
vn -0.9852 -0.0758 0.1541
# 96 vertex normals

vt 0.8000 0.0000 1.0000
vt 0.8500 0.0000 1.0000
vt 0.8500 0.2000 1.0000
vt 0.8000 0.2000 1.0000
vt 0.9000 0.0000 1.0000
vt 0.9000 0.2000 1.0000
vt 0.9500 0.0000 1.0000
vt 0.9500 0.2000 1.0000
vt 0.0500 0.2000 1.0000
vt 0.0000 0.2000 1.0000
vt -0.0500 0.2000 1.0000
vt -0.0500 0.0000 1.0000
vt 0.0500 0.0000 1.0000
vt 0.1000 0.0000 1.0000
vt 0.1000 0.2000 1.0000
vt 0.1500 0.0000 1.0000
vt 0.1500 0.2000 1.0000
vt 0.2000 0.0000 1.0000
vt 0.2000 0.2000 1.0000
vt 0.2500 0.0000 1.0000
vt 0.2500 0.2000 1.0000
vt 0.3000 0.0000 1.0000
vt 0.3000 0.2000 1.0000
vt 0.8500 0.4000 1.0000
vt 0.8000 0.4000 1.0000
vt 0.9000 0.4000 1.0000
vt 0.9500 0.4000 1.0000
vt 0.0000 0.4000 1.0000
vt -0.0500 0.4000 1.0000
vt 0.0500 0.4000 1.0000
vt 0.1000 0.4000 1.0000
vt 0.1500 0.4000 1.0000
vt 0.2000 0.4000 1.0000
vt 0.2500 0.4000 1.0000
vt 0.3000 0.4000 1.0000
vt 0.8500 0.6000 1.0000
vt 0.8000 0.6000 1.0000
vt 0.9000 0.6000 1.0000
vt 0.9500 0.6000 1.0000
vt 0.0000 0.6000 1.0000
vt -0.0500 0.6000 1.0000
vt 0.0500 0.6000 1.0000
vt 0.1000 0.6000 1.0000
vt 0.1500 0.6000 1.0000
vt 0.2000 0.6000 1.0000
vt 0.2500 0.6000 1.0000
vt 0.3000 0.6000 1.0000
vt 0.8500 0.8000 1.0000
vt 0.8000 0.8000 1.0000
vt 0.9000 0.8000 1.0000
vt 0.9500 0.8000 1.0000
vt 0.0000 0.8000 1.0000
vt -0.0500 0.8000 1.0000
vt 0.0500 0.8000 1.0000
vt 0.1000 0.8000 1.0000
vt 0.1500 0.8000 1.0000
vt 0.2000 0.8000 1.0000
vt 0.2500 0.8000 1.0000
vt 0.3000 0.8000 1.0000
vt 0.8500 0.9000 1.0000
vt 0.8000 0.9000 1.0000
vt 0.8000 0.8500 1.0000
vt 0.8500 0.8500 1.0000
vt 0.9000 0.8500 1.0000
vt 0.9000 0.9000 1.0000
vt 0.9500 0.8500 1.0000
vt 0.9500 0.9000 1.0000
vt 0.0000 0.8500 1.0000
vt 0.0000 0.9000 1.0000
vt -0.0500 0.9000 1.0000
vt -0.0500 0.8500 1.0000
vt 0.0500 0.8500 1.0000
vt 0.0500 0.9000 1.0000
vt 0.1000 0.8500 1.0000
vt 0.1000 0.9000 1.0000
vt 0.1500 0.9000 1.0000
vt 0.1500 0.8500 1.0000
vt 0.2000 0.8500 1.0000
vt 0.2000 0.9000 1.0000
vt 0.2500 0.9000 1.0000
vt 0.2500 0.8500 1.0000
vt 0.3000 0.9000 1.0000
vt 0.3000 0.8500 1.0000
vt 0.0000 0.0000 1.0000
vt 0.8500 0.9500 1.0000
vt 0.8000 0.9500 1.0000
vt 0.9000 0.9500 1.0000
vt 0.9500 0.9500 1.0000
vt 0.0000 0.9500 1.0000
vt -0.0500 0.9500 1.0000
vt 0.0500 0.9500 1.0000
vt 0.1000 0.9500 1.0000
vt 0.1500 0.9500 1.0000
vt 0.2000 0.9500 1.0000
vt 0.2500 0.9500 1.0000
vt 0.3000 0.9500 1.0000
# 96 texture coords

g Cylinder003
usemtl wire_228153184
s off
f 4/4/1 3/3/1 2/2/1 1/1/1 
f 3/3/2 6/6/2 5/5/2 2/2/2 
f 6/6/3 8/8/3 7/7/3 5/5/3 
f 7/12/4 8/11/4 10/10/4 9/9/4 
f 7/12/5 9/9/5 11/13/5 
f 9/9/6 13/15/6 12/14/6 11/13/6 
f 17/15/7 16/17/7 15/16/7 14/14/7 
f 16/17/8 19/19/8 18/18/8 15/16/8 
f 19/19/9 21/21/9 20/20/9 18/18/9 
f 21/21/10 23/23/10 22/22/10 20/20/10 
f 25/25/11 24/24/11 3/3/11 4/4/11 
f 24/24/12 26/26/12 6/6/12 3/3/12 
f 26/26/13 27/27/13 8/8/13 6/6/13 
f 27/29/14 28/28/14 10/10/14 8/11/14 
f 28/28/15 29/30/15 9/9/15 10/10/15 
f 29/30/16 30/31/16 13/15/16 9/9/16 
f 32/31/17 31/32/17 16/17/17 17/15/17 
f 31/32/18 33/33/18 19/19/18 16/17/18 
f 33/33/19 34/34/19 21/21/19 19/19/19 
f 34/34/20 35/35/20 23/23/20 21/21/20 
f 37/37/21 36/36/21 24/24/21 25/25/21 
f 36/36/22 38/38/22 26/26/22 24/24/22 
f 38/38/23 39/39/23 27/27/23 26/26/23 
f 39/41/24 40/40/24 28/28/24 27/29/24 
f 40/40/25 41/42/25 29/30/25 28/28/25 
f 41/42/26 42/43/26 30/31/26 29/30/26 
f 42/43/27 44/44/27 43/32/27 30/31/27 
f 44/44/28 46/45/28 45/33/28 43/32/28 
f 46/45/29 48/46/29 47/34/29 45/33/29 
f 48/46/30 50/47/30 49/35/30 47/34/30 
f 52/49/31 51/48/31 36/36/31 37/37/31 
f 51/48/32 53/50/32 38/38/32 36/36/32 
f 53/50/33 54/51/33 39/39/33 38/38/33 
f 54/53/34 55/52/34 40/40/34 39/41/34 
f 55/52/35 56/54/35 41/42/35 40/40/35 
f 56/54/36 57/55/36 42/43/36 41/42/36 
f 57/55/37 58/56/37 44/44/37 42/43/37 
f 58/56/38 59/57/38 46/45/38 44/44/38 
f 59/57/39 60/58/39 48/46/39 46/45/39 
f 60/58/40 61/59/40 50/47/40 48/46/40 
f 65/63/41 64/62/41 63/61/41 62/60/41 
f 65/63/42 62/60/42 67/65/42 66/64/42 
f 66/64/43 67/65/43 69/67/43 68/66/43 
f 68/71/44 69/70/44 71/69/44 70/68/44 
f 70/68/45 71/69/45 73/73/45 72/72/45 
f 72/72/46 73/73/46 75/75/46 74/74/46 
f 77/77/47 74/74/47 75/75/47 76/76/47 
f 77/77/48 76/76/48 79/79/48 78/78/48 
f 81/81/49 78/78/49 79/79/49 80/80/49 
f 83/83/50 81/81/50 80/80/50 82/82/50 
f 12/14/51 13/15/51 17/15/51 14/14/51 
f 84/16/52 12/14/52 14/14/52 15/16/52 
f 85/18/53 84/16/53 15/16/53 18/18/53 
f 86/20/54 85/18/54 18/18/54 20/20/54 
f 87/22/55 86/20/55 20/20/55 22/22/55 
f 13/15/56 30/31/56 32/31/56 17/15/56 
f 30/31/57 43/32/57 31/32/57 32/31/57 
f 43/32/58 45/33/58 33/33/58 31/32/58 
f 45/33/59 47/34/59 34/34/59 33/33/59 
f 47/34/60 49/35/60 35/35/60 34/34/60 
s 1
f 87/22/64 1/1/63 2/2/62 86/20/61 
s 2
f 2/2/68 5/5/67 85/18/66 86/20/65 
s 1
f 5/5/72 7/7/71 84/16/70 85/18/69 
s 2
f 7/7/76 11/84/75 12/13/74 84/14/73 
s off
f 62/60/77 63/61/77 89/86/77 88/85/77 
f 64/62/78 65/63/78 51/48/78 52/49/78 
f 62/60/79 88/85/79 90/87/79 67/65/79 
f 66/64/80 53/50/80 51/48/80 65/63/80 
f 67/65/81 90/87/81 91/88/81 69/67/81 
f 66/64/82 68/66/82 54/51/82 53/50/82 
f 69/70/83 91/90/83 92/89/83 71/69/83 
f 70/68/84 55/52/84 54/53/84 68/71/84 
f 71/69/85 92/89/85 93/91/85 73/73/85 
f 72/72/86 56/54/86 55/52/86 70/68/86 
f 73/73/87 93/91/87 94/92/87 75/75/87 
f 74/74/88 57/55/88 56/54/88 72/72/88 
f 76/76/89 75/75/89 94/92/89 95/93/89 
f 74/74/90 77/77/90 58/56/90 57/55/90 
f 76/76/91 95/93/91 96/94/91 79/79/91 
f 78/78/92 59/57/92 58/56/92 77/77/92 
f 80/80/93 79/79/93 96/94/93 97/95/93 
f 78/78/94 81/81/94 60/58/94 59/57/94 
f 82/82/95 80/80/95 97/95/95 98/96/95 
f 81/81/96 83/83/96 61/59/96 60/58/96 
# 83 polygons - 1 triangles

#
# object Cylinder004
#

v  18.6735 0.0000 0.2937
v  17.6949 0.0000 -6.1255
v  19.0962 12.1530 -6.1255
v  20.0749 12.1530 0.2937
v  14.3688 0.0000 -10.9615
v  16.2561 12.1530 -11.6997
v  9.9452 0.0000 -15.3852
v  11.8324 12.1530 -16.1233
v  0.0793 12.1530 -19.9421
v  6.2583 12.1530 -18.9634
v  0.0793 2.1085 -19.8080
v  -9.4480 5.6401 -19.7558
v  -11.0115 14.5890 -20.5888
v  -30.7019 0.0000 -23.6996
v  -39.1392 0.0000 -21.5473
v  -39.1392 12.1530 -21.5473
v  -30.7019 12.1530 -23.6996
v  -46.2234 0.0000 -16.1953
v  -48.2972 12.1530 -16.0887
v  -49.5605 0.0000 -10.3331
v  -53.2952 12.1530 -10.3331
v  -51.3231 0.0000 0.2434
v  -55.0577 12.1530 0.2095
v  14.9106 28.2340 -6.1255
v  15.6815 27.7149 0.3006
v  12.0762 28.2246 -11.6997
v  7.9333 25.7939 -16.1233
v  4.4342 24.3059 -18.9634
v  -1.2731 24.3059 -21.1020
v  -9.4055 19.7759 -20.4986
v  -33.2698 22.4631 -21.5473
v  -22.0870 20.0039 -22.9144
v  -42.3207 26.4699 -16.0887
v  -47.7600 26.4699 -10.3331
v  -51.3028 26.4699 0.2349
v  16.6345 36.4589 -6.1255
v  17.6131 36.4589 0.2937
v  13.7943 36.4589 -11.6997
v  9.4145 36.4589 -16.1233
v  5.2350 36.4589 -18.9634
v  0.0793 36.4589 -19.9421
v  -4.5869 36.4589 -18.9634
v  -12.8475 22.1412 -16.1233
v  -8.6276 36.4589 -16.1233
v  -14.8358 24.3059 -11.6997
v  -12.9362 36.4589 -11.6997
v  -15.9179 23.6593 -6.1255
v  -15.7764 36.4589 -6.1255
v  -16.8966 22.2527 0.4038
v  -16.7550 36.4589 0.1759
v  19.0962 59.5729 -6.1255
v  20.0749 59.5729 0.2937
v  16.2561 59.5729 -11.6997
v  11.8324 59.5729 -16.1233
v  6.2583 59.5729 -18.9634
v  0.0793 59.5729 -19.9421
v  -6.0996 59.5729 -18.9634
v  -11.6737 59.5729 -16.1233
v  -16.0974 59.5729 -11.6997
v  -18.9375 59.5729 -6.1255
v  -19.9162 59.5729 0.1841
v  20.1079 90.5582 -5.7307
v  21.1623 90.5582 1.1265
v  21.7162 78.3698 1.3164
v  20.6458 78.3698 -5.6332
v  17.5394 78.3698 -11.7298
v  17.0480 90.5582 -11.7362
v  12.6874 78.3698 -16.1905
v  12.2550 90.5582 -15.7583
v  6.5908 78.3698 -19.2969
v  6.2495 90.5582 -18.8183
v  -0.1674 78.3698 -20.3673
v  -0.4077 90.5582 -19.8727
v  -6.5037 78.3698 -19.4318
v  -6.2339 90.5582 -19.0840
v  -12.2394 90.5582 -16.0240
v  -12.6003 78.3698 -16.3254
v  -17.4386 78.3698 -11.4871
v  -17.0055 90.5582 -11.2579
v  -19.8830 90.5582 -5.7307
v  -20.4524 78.3698 -5.6332
v  -20.9333 90.5582 0.9113
v  -21.5207 78.3698 1.1472
v  -11.6737 8.7450 -16.1233
v  -16.0974 8.4937 -12.6257
v  -18.9375 8.2913 -4.7382
v  -19.9162 8.2839 0.0684
v  18.4482 97.7819 -6.1255
v  19.4268 97.7819 0.2937
v  15.6080 97.7819 -11.6997
v  11.1469 97.7819 -15.0875
v  5.5728 97.7819 -17.9277
v  -0.6061 97.7819 -18.9063
v  -5.6281 97.7819 -18.2976
v  -11.2022 97.7819 -15.4574
v  -15.6259 97.7819 -11.0338
v  -18.2120 97.7819 -6.1255
v  -19.1849 97.7819 0.0490
# 98 vertices

vn 0.9822 -0.1133 -0.1497
vn 0.8530 -0.1308 -0.5053
vn 0.6990 -0.1510 -0.6990
vn 0.3038 -0.1831 -0.9350
vn 0.4069 -0.0122 -0.9134
vn 0.0144 -0.0497 -0.9987
vn -0.2472 0.0000 -0.9690
vn -0.5535 -0.0436 -0.8317
vn -0.7980 -0.1882 -0.5725
vn -0.9439 -0.2903 -0.1576
vn 0.9582 0.2598 -0.1200
vn 0.8681 0.2259 -0.4421
vn 0.6801 0.1849 -0.7094
vn 0.5137 0.1140 -0.8504
vn 0.2537 -0.0130 -0.9672
vn 0.0090 -0.0617 -0.9981
vn -0.1541 0.1650 -0.9742
vn -0.4646 0.2235 -0.8569
vn -0.7100 0.2854 -0.6438
vn -0.9251 0.3003 -0.2325
vn 0.9679 -0.2086 -0.1403
vn 0.8762 -0.1832 -0.4458
vn 0.7314 -0.1238 -0.6706
vn 0.6011 -0.0601 -0.7969
vn 0.2758 0.0214 -0.9610
vn -0.1658 0.1269 -0.9780
vn -0.6393 0.2228 -0.7360
vn -0.7800 0.1803 -0.5993
vn -0.9419 0.0770 -0.3269
vn -0.9887 0.0091 -0.1498
vn 0.9831 -0.1047 -0.1499
vn 0.8870 -0.0945 -0.4520
vn 0.7069 -0.0746 -0.7034
vn 0.5029 -0.0374 -0.8635
vn 0.1702 -0.0038 -0.9854
vn -0.1776 -0.0058 -0.9841
vn -0.5080 -0.0501 -0.8599
vn -0.7085 -0.0951 -0.6993
vn -0.8845 -0.1210 -0.4507
vn -0.9793 -0.1339 -0.1520
vn 0.9875 0.0424 -0.1520
vn 0.8904 0.0357 -0.4537
vn 0.6599 0.0381 -0.7503
vn 0.4535 0.0476 -0.8900
vn 0.1563 0.0431 -0.9868
vn -0.1403 0.0344 -0.9895
vn -0.4537 0.0355 -0.8904
vn -0.7066 0.0384 -0.7066
vn -0.8874 0.0390 -0.4594
vn -0.9868 0.0447 -0.1557
vn 0.1747 -0.0259 -0.9843
vn 0.1102 -0.7768 0.6200
vn 0.2351 -0.9310 0.2792
vn 0.2512 -0.9629 0.0987
vn 0.2542 -0.9661 0.0448
vn 0.1725 -0.0692 -0.9826
vn 0.1195 0.8888 -0.4424
vn 0.1317 0.9002 -0.4150
vn 0.0693 0.9929 0.0965
vn 0.0979 0.9894 0.1073
vn -0.2104 -0.9769 -0.0370
vn -0.2194 -0.9751 0.0335
vn -0.2186 -0.9754 0.0267
vn -0.2094 -0.9768 -0.0441
vn -0.2560 -0.9627 -0.0872
vn -0.2607 -0.9581 -0.1184
vn -0.2189 -0.9685 0.1189
vn -0.2131 -0.9660 0.1466
vn -0.3241 -0.8848 -0.3349
vn -0.3188 -0.8272 -0.4627
vn -0.2797 -0.9322 0.2296
vn -0.2722 -0.9230 0.2722
vn -0.3181 -0.8238 0.4692
vn -0.2967 -0.8081 0.5089
vn -0.3502 -0.8448 0.4046
vn -0.3566 -0.8486 0.3909
vn 0.9655 0.2143 -0.1479
vn 0.9855 -0.0776 -0.1510
vn 0.8769 0.1771 -0.4468
vn 0.8893 -0.0614 -0.4531
vn 0.6183 0.1468 -0.7721
vn 0.6911 -0.0412 -0.7216
vn 0.4488 0.1506 -0.8808
vn 0.4539 -0.0238 -0.8908
vn 0.1550 0.1352 -0.9786
vn 0.1564 -0.0203 -0.9875
vn -0.1268 0.1230 -0.9843
vn -0.1511 -0.0261 -0.9882
vn -0.4499 0.1339 -0.8830
vn -0.4538 -0.0319 -0.8906
vn -0.6986 0.1551 -0.6986
vn -0.7065 -0.0424 -0.7065
vn -0.8717 0.1787 -0.4564
vn -0.8885 -0.0590 -0.4551
vn -0.9647 0.2151 -0.1523
vn -0.9852 -0.0758 -0.1541
# 96 vertex normals

vt 0.8000 0.0000 1.0000
vt 0.8500 0.0000 1.0000
vt 0.8500 0.2000 1.0000
vt 0.8000 0.2000 1.0000
vt 0.9000 0.0000 1.0000
vt 0.9000 0.2000 1.0000
vt 0.9500 0.0000 1.0000
vt 0.9500 0.2000 1.0000
vt 0.0500 0.2000 1.0000
vt 0.0000 0.2000 1.0000
vt -0.0500 0.2000 1.0000
vt -0.0500 0.0000 1.0000
vt 0.0500 0.0000 1.0000
vt 0.1000 0.0000 1.0000
vt 0.1000 0.2000 1.0000
vt 0.1500 0.0000 1.0000
vt 0.1500 0.2000 1.0000
vt 0.2000 0.0000 1.0000
vt 0.2000 0.2000 1.0000
vt 0.2500 0.0000 1.0000
vt 0.2500 0.2000 1.0000
vt 0.3000 0.0000 1.0000
vt 0.3000 0.2000 1.0000
vt 0.8500 0.4000 1.0000
vt 0.8000 0.4000 1.0000
vt 0.9000 0.4000 1.0000
vt 0.9500 0.4000 1.0000
vt 0.0000 0.4000 1.0000
vt -0.0500 0.4000 1.0000
vt 0.0500 0.4000 1.0000
vt 0.1000 0.4000 1.0000
vt 0.1500 0.4000 1.0000
vt 0.2000 0.4000 1.0000
vt 0.2500 0.4000 1.0000
vt 0.3000 0.4000 1.0000
vt 0.8500 0.6000 1.0000
vt 0.8000 0.6000 1.0000
vt 0.9000 0.6000 1.0000
vt 0.9500 0.6000 1.0000
vt 0.0000 0.6000 1.0000
vt -0.0500 0.6000 1.0000
vt 0.0500 0.6000 1.0000
vt 0.1000 0.6000 1.0000
vt 0.1500 0.6000 1.0000
vt 0.2000 0.6000 1.0000
vt 0.2500 0.6000 1.0000
vt 0.3000 0.6000 1.0000
vt 0.8500 0.8000 1.0000
vt 0.8000 0.8000 1.0000
vt 0.9000 0.8000 1.0000
vt 0.9500 0.8000 1.0000
vt 0.0000 0.8000 1.0000
vt -0.0500 0.8000 1.0000
vt 0.0500 0.8000 1.0000
vt 0.1000 0.8000 1.0000
vt 0.1500 0.8000 1.0000
vt 0.2000 0.8000 1.0000
vt 0.2500 0.8000 1.0000
vt 0.3000 0.8000 1.0000
vt 0.8500 0.9000 1.0000
vt 0.8000 0.9000 1.0000
vt 0.8000 0.8500 1.0000
vt 0.8500 0.8500 1.0000
vt 0.9000 0.8500 1.0000
vt 0.9000 0.9000 1.0000
vt 0.9500 0.8500 1.0000
vt 0.9500 0.9000 1.0000
vt 0.0000 0.8500 1.0000
vt 0.0000 0.9000 1.0000
vt -0.0500 0.9000 1.0000
vt -0.0500 0.8500 1.0000
vt 0.0500 0.8500 1.0000
vt 0.0500 0.9000 1.0000
vt 0.1000 0.8500 1.0000
vt 0.1000 0.9000 1.0000
vt 0.1500 0.9000 1.0000
vt 0.1500 0.8500 1.0000
vt 0.2000 0.8500 1.0000
vt 0.2000 0.9000 1.0000
vt 0.2500 0.9000 1.0000
vt 0.2500 0.8500 1.0000
vt 0.3000 0.9000 1.0000
vt 0.3000 0.8500 1.0000
vt 0.0000 0.0000 1.0000
vt 0.8500 0.9500 1.0000
vt 0.8000 0.9500 1.0000
vt 0.9000 0.9500 1.0000
vt 0.9500 0.9500 1.0000
vt 0.0000 0.9500 1.0000
vt -0.0500 0.9500 1.0000
vt 0.0500 0.9500 1.0000
vt 0.1000 0.9500 1.0000
vt 0.1500 0.9500 1.0000
vt 0.2000 0.9500 1.0000
vt 0.2500 0.9500 1.0000
vt 0.3000 0.9500 1.0000
# 96 texture coords

g Cylinder004
usemtl wire_228153184
s off
f 99/97/97 100/98/97 101/99/97 102/100/97 
f 100/98/98 103/101/98 104/102/98 101/99/98 
f 103/101/99 105/103/99 106/104/99 104/102/99 
f 107/105/100 108/106/100 106/107/100 105/108/100 
f 109/109/101 107/105/101 105/108/101 
f 109/109/102 110/110/102 111/111/102 107/105/102 
f 112/110/103 113/112/103 114/113/103 115/111/103 
f 113/112/104 116/114/104 117/115/104 114/113/104 
f 116/114/105 118/116/105 119/117/105 117/115/105 
f 118/116/106 120/118/106 121/119/106 119/117/106 
f 102/100/107 101/99/107 122/120/107 123/121/107 
f 101/99/108 104/102/108 124/122/108 122/120/108 
f 104/102/109 106/104/109 125/123/109 124/122/109 
f 106/107/110 108/106/110 126/124/110 125/125/110 
f 108/106/111 107/105/111 127/126/111 126/124/111 
f 107/105/112 111/111/112 128/127/112 127/126/112 
f 115/111/113 114/113/113 129/128/113 130/127/113 
f 114/113/114 117/115/114 131/129/114 129/128/114 
f 117/115/115 119/117/115 132/130/115 131/129/115 
f 119/117/116 121/119/116 133/131/116 132/130/116 
f 123/121/117 122/120/117 134/132/117 135/133/117 
f 122/120/118 124/122/118 136/134/118 134/132/118 
f 124/122/119 125/123/119 137/135/119 136/134/119 
f 125/125/120 126/124/120 138/136/120 137/137/120 
f 126/124/121 127/126/121 139/138/121 138/136/121 
f 127/126/122 128/127/122 140/139/122 139/138/122 
f 128/127/123 141/128/123 142/140/123 140/139/123 
f 141/128/124 143/129/124 144/141/124 142/140/124 
f 143/129/125 145/130/125 146/142/125 144/141/125 
f 145/130/126 147/131/126 148/143/126 146/142/126 
f 135/133/127 134/132/127 149/144/127 150/145/127 
f 134/132/128 136/134/128 151/146/128 149/144/128 
f 136/134/129 137/135/129 152/147/129 151/146/129 
f 137/137/130 138/136/130 153/148/130 152/149/130 
f 138/136/131 139/138/131 154/150/131 153/148/131 
f 139/138/132 140/139/132 155/151/132 154/150/132 
f 140/139/133 142/140/133 156/152/133 155/151/133 
f 142/140/134 144/141/134 157/153/134 156/152/134 
f 144/141/135 146/142/135 158/154/135 157/153/135 
f 146/142/136 148/143/136 159/155/136 158/154/136 
f 160/156/137 161/157/137 162/158/137 163/159/137 
f 164/160/138 165/161/138 160/156/138 163/159/138 
f 166/162/139 167/163/139 165/161/139 164/160/139 
f 168/164/140 169/165/140 167/166/140 166/167/140 
f 170/168/141 171/169/141 169/165/141 168/164/141 
f 172/170/142 173/171/142 171/169/142 170/168/142 
f 174/172/143 173/171/143 172/170/143 175/173/143 
f 176/174/144 177/175/144 174/172/144 175/173/144 
f 178/176/145 177/175/145 176/174/145 179/177/145 
f 180/178/146 178/176/146 179/177/146 181/179/146 
f 112/110/147 115/111/147 111/111/147 110/110/147 
f 113/112/148 112/110/148 110/110/148 182/112/148 
f 116/114/149 113/112/149 182/112/149 183/114/149 
f 118/116/150 116/114/150 183/114/150 184/116/150 
f 120/118/151 118/116/151 184/116/151 185/118/151 
f 115/111/152 130/127/152 128/127/152 111/111/152 
f 130/127/153 129/128/153 141/128/153 128/127/153 
f 129/128/154 131/129/154 143/129/154 141/128/154 
f 131/129/155 132/130/155 145/130/155 143/129/155 
f 132/130/156 133/131/156 147/131/156 145/130/156 
s 1
f 184/116/157 100/98/158 99/97/159 185/118/160 
s 2
f 184/116/161 183/114/162 103/101/163 100/98/164 
s 1
f 183/114/165 182/112/166 105/103/167 103/101/168 
s 2
f 182/110/169 110/109/170 109/180/171 105/103/172 
s off
f 186/181/173 187/182/173 161/157/173 160/156/173 
f 150/145/174 149/144/174 163/159/174 162/158/174 
f 165/161/175 188/183/175 186/181/175 160/156/175 
f 163/159/176 149/144/176 151/146/176 164/160/176 
f 167/163/177 189/184/177 188/183/177 165/161/177 
f 151/146/178 152/147/178 166/162/178 164/160/178 
f 169/165/179 190/185/179 189/186/179 167/166/179 
f 166/167/180 152/149/180 153/148/180 168/164/180 
f 171/169/181 191/187/181 190/185/181 169/165/181 
f 168/164/182 153/148/182 154/150/182 170/168/182 
f 173/171/183 192/188/183 191/187/183 171/169/183 
f 170/168/184 154/150/184 155/151/184 172/170/184 
f 193/189/185 192/188/185 173/171/185 174/172/185 
f 155/151/186 156/152/186 175/173/186 172/170/186 
f 177/175/187 194/190/187 193/189/187 174/172/187 
f 175/173/188 156/152/188 157/153/188 176/174/188 
f 195/191/189 194/190/189 177/175/189 178/176/189 
f 157/153/190 158/154/190 179/177/190 176/174/190 
f 196/192/191 195/191/191 178/176/191 180/178/191 
f 158/154/192 159/155/192 181/179/192 179/177/192 
# 83 polygons - 1 triangles

